<?xml version="1.0" encoding="UTF-8"?>
<svg width="135px" height="150px" viewBox="0 0 135 150" version="1.1" xmlns="http://www.w3.org/2000/svg" xmlns:xlink="http://www.w3.org/1999/xlink">
    <!-- Generator: Sketch 58 (84663) - https://sketch.com -->
    <title>Custom Preset</title>
    <desc>Created with Sketch.</desc>
    <defs>
        <polygon id="path-1" points="0 0 128 0 128 128 0 128"></polygon>
    </defs>
    <g id="Custom-Preset" stroke="none" stroke-width="1" fill="none" fill-rule="evenodd">
        <g id="Group-3" transform="translate(4.000000, 11.000000)">
            <mask id="mask-2" fill="white">
                <use xlink:href="#path-1"></use>
            </mask>
            <g id="Clip-2"></g>
            <path d="M64.0002258,128 C99.3969583,128 128,99.3965068 128,64.0002258 C128,28.6030417 99.3969583,0 64.0002258,0 C28.6034932,0 0,28.6030417 0,64.0002258 C0,99.3965068 28.6034932,128 64.0002258,128 M45.4971831,92.8710414 C45.1395491,92.8710414 44.9607321,92.513859 44.7823667,92.1566765 L15.28524,32.7149293 C20.5589865,24.669971 27.6204513,17.8767317 36.1120005,13.1389846 L57.2959434,60.3353806 C57.6535774,61.229014 58.1900283,61.407831 58.9052963,61.407831 L69.0951553,61.407831 C69.8104232,61.407831 70.3464226,61.229014 70.7045082,60.3353806 L91.8889026,13.1389846 C100.38,17.8767317 107.443271,24.669971 112.716115,32.7149293 L83.218988,92.1566765 C83.0397195,92.513859 82.8609025,92.8710414 82.5037201,92.8710414 C82.1456345,92.8710414 81.9672691,92.513859 81.7884521,92.1566765 L70.7045082,66.7705344 C70.3464226,65.8773526 69.8104232,65.6980841 69.0951553,65.6980841 L58.9052963,65.6980841 C58.1900283,65.6980841 57.6535774,65.8773526 57.2959434,66.7705344 L46.212451,92.1566765 C46.033634,92.513859 45.854817,92.8710414 45.4971831,92.8710414 M64.0002258,50.860338 C63.6425918,50.860338 63.4642264,50.5027041 63.2849578,50.1450701 L45.0505921,9.20636556 C50.9501981,7.06101325 57.3858034,5.89960595 64.0002258,5.89960595 C70.6141966,5.89960595 77.0498019,7.06101325 82.950311,9.20636556 L64.7150422,50.1450701 C64.5362252,50.5027041 64.3578598,50.860338 64.0002258,50.860338 M64.0002258,122.101297 C32.1789299,122.101297 6.07842293,95.8210701 6.07842293,64.0002258 C6.07842293,56.8493525 7.33014185,50.0556616 9.74371964,43.7090132 L43.6205078,111.910535 C44.0670987,112.809587 44.6035497,113.519888 45.676,113.519888 C46.748902,113.519888 47.3395399,112.792428 47.7319439,111.910535 L63.2849578,76.9612965 C63.4642264,76.6041141 63.6425918,76.2460286 64.0002258,76.2460286 C64.3578598,76.2460286 64.5362252,76.6041141 64.7150422,76.9612965 L80.2680561,111.910535 C80.6609117,112.791525 81.2520011,113.519888 82.3244515,113.519888 C83.3969019,113.519888 83.9347075,112.806878 84.3799438,111.910535 L118.257183,43.7090132 C120.670761,50.0556616 121.922029,56.8493525 121.922029,64.0002258 C121.922029,95.8210701 95.8215217,122.101297 64.0002258,122.101297" id="Fill-1" fill="#FFFFFF" mask="url(#mask-2)"></path>
        </g>
    </g>
</svg>