<?xml version="1.0" encoding="utf-8"?>
<!-- Generator: Adobe Illustrator 24.2.1, SVG Export Plug-In . SVG Version: 6.00 Build 0)  -->
<svg version="1.1" id="Capa_1" xmlns="http://www.w3.org/2000/svg" xmlns:xlink="http://www.w3.org/1999/xlink" x="0px" y="0px"
	 viewBox="0 0 90 90" style="enable-background:new 0 0 90 90;" xml:space="preserve">
<style type="text/css">
	.st0{fill:#FFFFFF;}
</style>
<g>
	<g>
		<path class="st0" d="M45,16.5c-24.85,0-45,13.03-45,29.1s20.15,29.1,45,29.1s45-13.03,45-29.1S69.85,16.5,45,16.5z M45,62.21
			c-3.69,0-6.71-7.28-6.91-16.44c2.23,0.2,4.54,0.31,6.91,0.31c2.37,0,4.68-0.11,6.91-0.31C51.71,54.93,48.69,62.21,45,62.21z
			 M38.55,38.5c1.01-6.47,3.51-11.06,6.45-11.06s5.44,4.59,6.45,11.06c-2.06,0.19-4.22,0.29-6.45,0.29
			C42.78,38.79,40.62,38.69,38.55,38.5z M45,20.71c-4.83,0-8.94,7.22-10.46,17.3C25.39,36.58,19,33.34,19,29.56
			c0-5.1,11.64-9.23,26-9.23s26,4.13,26,9.23c0,3.78-6.39,7.02-15.54,8.45C53.94,27.93,49.83,20.71,45,20.71z M6.45,44.51
			c0-4.93,1.9-9.55,5.21-13.53c-0.04,0.28-0.06,0.56-0.06,0.84c0,6.22,9.32,11.5,22.32,13.46c-0.01,0.45-0.02,0.91-0.02,1.36
			c0,11.58,3.25,21.39,7.73,24.72C21.92,70.16,6.45,58.6,6.45,44.51z M48.36,71.35c4.48-3.33,7.73-13.13,7.73-24.72
			c0-0.46-0.01-0.91-0.02-1.36c13-1.95,22.32-7.24,22.32-13.46c0-0.28-0.02-0.56-0.06-0.84c3.31,3.98,5.21,8.6,5.21,13.53
			C83.55,58.6,68.08,70.16,48.36,71.35z"/>
	</g>
</g>
</svg>
